<svg xmlns="http://www.w3.org/2000/svg" width="128" height="57" viewBox="0 0 256 113.805"><path d="M31.505 31.023c0 2.145-.43 4.154-1.286 6.028-.86 1.88-1.99 3.52-3.38 4.91-1.4 1.4-3.06 2.49-4.99 3.3-1.93.81-3.92 1.21-5.95 1.21-2.15 0-4.18-.37-6.11-1.12-1.93-.75-3.62-1.823-5.06-3.217-1.45-1.39-2.6-3-3.46-4.82C.42 35.478 0 33.49 0 31.348c0-2.14.427-4.15 1.286-6.03.856-1.88 2.01-3.51 3.456-4.91 1.447-1.39 3.135-2.49 5.063-3.295 1.93-.806 3.963-1.208 6.108-1.208 2.034 0 4.02.4 5.947 1.205 1.93.8 3.59 1.87 4.983 3.21 1.392 1.34 2.517 2.95 3.376 4.822.85 1.875 1.28 3.832 1.28 5.866zm0 51.598c0 2.15-.43 4.16-1.286 6.03-.86 1.88-1.99 3.49-3.38 4.82-1.4 1.35-3.06 2.42-4.99 3.22-1.93.81-3.92 1.21-5.95 1.21-2.15 0-4.18-.37-6.11-1.12-1.93-.75-3.62-1.82-5.06-3.21-1.45-1.39-2.6-3-3.46-4.82C.42 86.91 0 84.93 0 82.78c0-2.143.427-4.152 1.286-6.028.856-1.874 2.01-3.51 3.456-4.902 1.447-1.392 3.135-2.492 5.063-3.295 1.93-.804 3.963-1.206 6.108-1.206 2.034 0 4.02.4 5.947 1.2 1.93.8 3.59 1.87 4.983 3.21 1.392 1.34 2.517 2.95 3.376 4.82.85 1.87 1.28 3.88 1.28 6.02z"/><path fill="#D40000" d="M149.664 56.58c0 9.967-1.85 18.566-5.545 25.8s-8.58 13.18-14.63 17.842c-6.06 4.662-12.89 8.092-20.5 10.288-7.61 2.197-15.33 3.295-23.15 3.295H43.41V0h41.15c8.037 0 15.966.94 23.79 2.813 7.82 1.876 14.788 4.983 20.896 9.323 6.103 4.34 11.03 10.155 14.79 17.44 3.743 7.29 5.62 16.29 5.62 27.005zm-28.612 0c0-6.43-1.045-11.76-3.134-15.993-2.09-4.232-4.877-7.608-8.36-10.127-3.482-2.517-7.448-4.312-11.894-5.385-4.448-1.07-9.03-1.607-13.743-1.607H70.26v66.547h13.02c4.928 0 9.67-.562 14.226-1.688 4.554-1.125 8.572-2.974 12.056-5.545 3.48-2.572 6.27-6 8.36-10.287 2.087-4.286 3.132-9.59 3.132-15.914z"/><path d="M239.028 90.107v23.698h-23.856V90.107h-53.527v-21.15L207.938 0h30.93v69.762H256v20.345h-16.972zm-23.695-62.46h-.482l-27 42.113h27.49V27.648z"/></svg>