<svg viewBox="0.0 0.0 812.010498687664 329.7742782152231" fill="none" stroke-linecap="square" stroke-miterlimit="10" xmlns="http://www.w3.org/2000/svg"><clipPath id="a"><path d="M0 0h812.01v329.774H0V0z"/></clipPath><g clip-path="url(#a)"><path fill="none" d="M0 0h812.01v329.774H0z"/><path fill="#efefef" d="M3.6 3.84h134.174v215.18H3.6z"/><path stroke="#000" stroke-linejoin="round" stroke-linecap="butt" d="M3.6 3.84h134.174v215.18H3.6z"/><path fill="#000" d="M56.15 107.4q-.766 0-1.266.33-.5.312-.5.952 0 .625.5.97.5.327 2.11.718 1.61.39 2.42 1.11.83.702.83 2.077 0 1.36-1.048 2.22-1.03.858-2.703.858-2.468 0-4.375-1.703l1.11-1.328q1.593 1.375 3.312 1.375.844 0 1.344-.36.516-.375.516-.985t-.485-.937q-.47-.344-1.625-.61-1.156-.28-1.75-.515-.594-.234-1.062-.61-.938-.703-.938-2.156 0-1.468 1.063-2.25 1.062-.78 2.61-.78 1.015 0 2 .327 1 .328 1.718.922l-.952 1.344q-.47-.422-1.266-.688-.78-.28-1.562-.28zm12.296 9.11h-1.532v-1.062q-1 1.187-2.656 1.187-1.25 0-2.078-.703-.813-.718-.813-1.89t.875-1.75q.875-.594 2.36-.594h2.172v-.297q0-1.593-1.766-1.593-1.11 0-2.312.813l-.75-1.047q1.453-1.156 3.296-1.156 1.407 0 2.297.718.906.704.906 2.235v5.14zm-1.688-2.968v-.672h-1.89q-1.813 0-1.813 1.14 0 .58.437.89.454.298 1.25.298.813 0 1.407-.438.608-.453.608-1.218zm5.494 2.968H70.58v-11.125h1.672v11.125zm9.766-3.25h-6.25q.047.86.78 1.407.75.53 1.688.53 1.5 0 2.282-.952l.953 1.047q-1.28 1.343-3.36 1.343-1.67 0-2.858-1.11-1.172-1.124-1.172-3 0-1.89 1.203-3 1.203-1.108 2.828-1.108 1.626 0 2.767.984 1.14.97 1.14 2.704v1.156zm-6.25-1.328h4.562q0-1-.625-1.53-.625-.548-1.547-.548-.922 0-1.656.563-.734.562-.734 1.515zm13.573 2.188q0 1.14-.827 1.828-.828.687-2.125.687-.86 0-1.797-.312-.937-.328-1.655-.89l.812-1.313q1.39 1.062 2.688 1.062.578 0 .906-.265.33-.266.33-.672 0-.594-1.595-1.078-.11-.047-.172-.063-2.5-.672-2.5-2.25 0-1.11.86-1.765.875-.673 2.25-.673t2.61.797l-.626 1.25q-.984-.64-2.125-.64-.594 0-.97.218-.374.218-.374.656 0 .375.39.562.267.14.75.266.5.11.876.234.375.11.72.266.358.156.764.422.813.53.813 1.672z"/><path fill="#efefef" d="M137.774 3.84h134.174v107.59H137.774z"/><path stroke="#000" stroke-linejoin="round" stroke-linecap="butt" d="M137.774 3.84h134.174v107.59H137.774z"/><path fill="#000" d="M178.605 35.715h-4.593V25.23h4.078q1.062 0 1.828.266.78.25 1.156.672.72.813.72 1.844 0 1.22-.782 1.828-.282.203-.39.266-.095.047-.376.172.984.203 1.562.875.58.656.58 1.656 0 1.093-.75 1.936-.892.97-3.033.97zm-2.828-6.14h2.25q1.922 0 1.922-1.297 0-.75-.47-1.078-.453-.33-1.437-.33h-2.266v2.705zm0 4.5h2.78q.97 0 1.486-.297.53-.313.53-1.172 0-1.39-2.233-1.39h-2.563v2.86zm13.926-2.016v-4.33h1.67v7.985h-1.67v-1.453q-.407.734-1.125 1.156-.704.422-1.532.422-1.343 0-2.187-.828-.83-.828-.83-2.39v-4.89h1.688v4.39q0 2.203 1.828 2.203.86 0 1.5-.58.657-.577.657-1.686zm9.577 1.265q0 1.14-.828 1.828-.828.687-2.125.687-.86 0-1.797-.312-.938-.328-1.656-.89l.812-1.313q1.39 1.062 2.688 1.062.578 0 .906-.266.328-.264.328-.67 0-.594-1.594-1.08-.11-.045-.172-.06-2.5-.673-2.5-2.25 0-1.11.86-1.767.875-.672 2.25-.672t2.61.798l-.626 1.25q-.984-.64-2.125-.64-.593 0-.968.218-.375.22-.375.657 0 .375.39.562.267.14.75.266.5.11.876.235.375.11.72.266.358.157.764.423.813.53.813 1.672zm3.4 2.39h-1.67V27.73h1.67v7.985zm-1.578-9.562q-.312-.328-.312-.75 0-.438.312-.75.328-.328.75-.328.438 0 .75.328.328.312.328.75 0 .422-.328.75-.312.312-.75.312-.422 0-.75-.312zm5.594 5.25v4.312h-1.672V27.73h1.672v1.454q.407-.734 1.11-1.14.718-.423 1.547-.423 1.36 0 2.187.83.828.812.828 2.375v4.89h-1.672V31.34q0-2.203-1.828-2.203-.875 0-1.53.578-.642.563-.642 1.688zm15.218 1.062h-6.25q.047.86.78 1.406.75.533 1.69.533 1.5 0 2.28-.953l.953 1.046q-1.28 1.344-3.36 1.344-1.67 0-2.858-1.11-1.173-1.124-1.173-3 0-1.89 1.203-3t2.828-1.11q1.625 0 2.766.986 1.14.97 1.14 2.703v1.155zm-6.25-1.328h4.563q0-1-.625-1.53-.625-.548-1.547-.548-.922 0-1.656.56-.736.564-.736 1.517zm13.573 2.188q0 1.14-.828 1.828-.83.687-2.126.687-.86 0-1.797-.312-.937-.328-1.656-.89l.814-1.313q1.39 1.062 2.687 1.062.58 0 .907-.266.33-.264.33-.67 0-.594-1.595-1.08-.11-.045-.172-.06-2.5-.673-2.5-2.25 0-1.11.86-1.767.874-.672 2.25-.672 1.374 0 2.61.798l-.626 1.25q-.985-.64-2.125-.64-.595 0-.97.218-.375.22-.375.657 0 .375.39.562.266.14.75.266.5.11.876.235.376.11.72.266.36.157.765.423.812.53.812 1.672zm7.417 0q0 1.14-.83 1.828-.827.687-2.124.687-.86 0-1.796-.312-.938-.328-1.657-.89l.813-1.313q1.39 1.062 2.687 1.062.578 0 .907-.266.328-.264.328-.67 0-.594-1.594-1.08-.11-.045-.172-.06-2.5-.673-2.5-2.25 0-1.11.86-1.767.874-.672 2.25-.672 1.374 0 2.61.798l-.626 1.25q-.985-.64-2.125-.64-.594 0-.97.218-.374.22-.374.657 0 .375.392.562.265.14.75.266.5.11.875.235.375.11.718.266.36.157.766.423.814.53.814 1.672zM170.593 51.325l-1.047 2.39h-1.89l4.625-10.484h1.89l4.61 10.485h-1.89l-1.047-2.39h-5.25zm4.532-1.625l-1.907-4.33-1.906 4.33h3.813zm6.296-.297v4.312h-1.67V45.73h1.67v1.454q.408-.734 1.11-1.14.72-.423 1.548-.423 1.36 0 2.187.83.828.812.828 2.375v4.89h-1.672V49.34q0-2.203-1.827-2.203-.875 0-1.53.578-.642.563-.642 1.688zm14.266 4.312h-1.53v-1.062q-1 1.187-2.657 1.187-1.25 0-2.08-.703-.812-.72-.812-1.89 0-1.172.875-1.75.875-.594 2.36-.594h2.17v-.297q0-1.594-1.764-1.594-1.11 0-2.314.813l-.75-1.047q1.453-1.157 3.297-1.157 1.406 0 2.297.72.906.703.906 2.235v5.14zM194 50.745v-.67h-1.892q-1.812 0-1.812 1.14 0 .578.437.89.453.298 1.25.298.813 0 1.406-.438.61-.453.61-1.22zm5.493 2.97h-1.672V42.59h1.673v11.125zm3.344 3.188q-1.094 0-1.985-.797l.766-1.375q.53.5 1.094.5.562 0 .906-.405.36-.407.36-.89 0-.204-3.22-8.204h1.797l2.375 5.89 2.39-5.89h1.798l-3.86 9.485q-.343.78-1 1.235-.64.453-1.42.453zm13.1-5.578q0 1.14-.828 1.828-.83.687-2.126.687-.86 0-1.797-.312-.938-.328-1.656-.89l.813-1.313q1.39 1.062 2.688 1.062.58 0 .907-.266.328-.264.328-.67 0-.594-1.594-1.08-.108-.045-.17-.06-2.5-.673-2.5-2.25 0-1.11.86-1.767.874-.672 2.25-.672 1.374 0 2.608.798l-.625 1.25q-.984-.64-2.125-.64-.594 0-.97.218-.374.22-.374.657 0 .375.39.562.267.14.75.266.5.11.876.235.375.11.72.266.358.157.764.423.813.53.813 1.672zm3.4 2.39h-1.672V45.73h1.672v7.985zm-1.578-9.562q-.313-.328-.313-.75 0-.438.312-.75.327-.328.75-.328.437 0 .75.328.327.312.327.75 0 .422-.328.75-.313.312-.75.312-.423 0-.75-.312zm9.61 7.172q0 1.14-.83 1.828-.827.687-2.124.687-.86 0-1.797-.312-.94-.328-1.657-.89l.812-1.313q1.39 1.062 2.688 1.062.578 0 .906-.266.327-.264.327-.67 0-.594-1.594-1.08-.11-.045-.172-.06-2.5-.673-2.5-2.25 0-1.11.86-1.767.876-.672 2.25-.672 1.376 0 2.61.798l-.625 1.25q-.984-.64-2.125-.64-.594 0-.97.218-.374.22-.374.657 0 .375.39.562.267.14.75.266.5.11.876.235.375.11.72.266.358.157.764.423.813.53.813 1.672zm8.806 2.515q-1.47 0-2.516-.812-1.03-.828-1.03-2.25 0-1.703 2.452-3.016-.61-.703-.86-1.156-.25-.453-.25-1.14 0-1.204.89-1.845.892-.64 2.08-.64 1.202 0 2.046.61.844.61.844 1.72 0 1.483-2.406 2.81 1.203 1.47 1.953 2.25.468-.686.718-1.608l1.234.875q-.39 1.03-.89 1.813.61.61 1.53 1.484l-1.124 1.047-1.375-1.36q-1.33 1.22-3.297 1.22zm-1.875-2.984q0 .672.563 1.11.578.42 1.516.42.952 0 2.014-.874-1.515-1.594-2.406-2.672-1.687.922-1.687 2.016zm2.64-6.547q-.5 0-.905.31-.39.314-.39.736t.203.765q.203.33.703.94 1.688-.845 1.688-1.564 0-.593-.406-.89-.39-.297-.89-.297zM165.687 61.23h1.765v10.485h-1.765V61.23zm6.01 6.173v4.312h-1.672V63.73h1.672v1.454q.406-.734 1.11-1.14.718-.423 1.546-.423 1.36 0 2.188.83.83.812.83 2.375v4.89h-1.673V67.34q0-2.203-1.828-2.203-.876 0-1.532.578-.64.563-.64 1.688zm9.86-2.313v4.047q0 .563.295.906.313.344.844.344.547 0 1.03-.53l.705 1.186q-.89.797-1.968.797-1.063 0-1.828-.734-.75-.75-.75-2.016v-4h-1.016v-1.36h1.016v-2.5h1.672v2.5h2.11v1.36h-2.11zm11.484 3.375h-6.25q.048.86.783 1.406.75.533 1.687.533 1.5 0 2.28-.953l.954 1.046q-1.28 1.344-3.36 1.344-1.67 0-2.858-1.11-1.172-1.124-1.172-3 0-1.89 1.203-3t2.828-1.11q1.625 0 2.766.986 1.14.97 1.14 2.703v1.155zm-6.25-1.328h4.564q0-1-.625-1.53-.626-.548-1.548-.548t-1.656.56q-.735.564-.735 1.517zm12.075-1.828q-1.25 0-1.89.81-.626.814-.626 2.173v3.422h-1.673V63.73h1.672v1.61q.405-.75 1.093-1.22.703-.483 1.484-.5l.016 1.69h-.078zm8.1 6.405h-1.532v-1.062q-1 1.187-2.656 1.187-1.25 0-2.078-.703-.814-.72-.814-1.89 0-1.172.875-1.75.876-.594 2.36-.594h2.172v-.297q0-1.594-1.765-1.594-1.11 0-2.313.813l-.75-1.047q1.453-1.157 3.297-1.157 1.407 0 2.298.72.906.703.906 2.235v5.14zm-1.688-2.97v-.67h-1.89q-1.813 0-1.813 1.14 0 .578.437.89.454.298 1.25.298.814 0 1.407-.438.61-.453.61-1.22zm7.353 3.095q-1.656 0-2.86-1.125-1.202-1.14-1.202-2.97 0-1.842 1.25-2.983 1.25-1.14 3.046-1.14 1.813 0 3.063 1.234l-1 1.22q-1.03-.908-2.078-.908-1.048 0-1.83.703-.765.705-.765 1.814 0 1.094.766 1.86.766.765 1.876.765 1.125 0 2.11-1.032l.983 1.093q-1.454 1.47-3.36 1.47zm6.973-6.75v4.047q0 .563.297.906.313.344.844.344.547 0 1.03-.53l.704 1.186q-.89.797-1.968.797-1.063 0-1.828-.734-.75-.75-.75-2.016v-4h-1.016v-1.36h1.016v-2.5h1.67v2.5h2.11v1.36h-2.11zm5.736 6.625h-1.673V63.73h1.672v7.985zm-1.58-9.562q-.312-.328-.312-.75 0-.438.313-.75.33-.328.75-.328.438 0 .75.328.33.312.33.75 0 .422-.33.75-.312.312-.75.312-.42 0-.75-.312zm5.782 7.468q.72.72 1.813.72 1.094 0 1.797-.72.72-.733.72-1.89 0-1.155-.72-1.874-.703-.735-1.797-.735-1.094 0-1.813.736-.703.72-.703 1.875 0 1.157.702 1.89zm4.813 1.033q-1.203 1.187-3 1.187t-3-1.187q-1.203-1.203-1.203-2.922 0-1.734 1.203-2.92 1.203-1.19 3-1.19t3 1.19q1.203 1.186 1.203 2.92 0 1.72-1.203 2.923zm4.556-3.25v4.312h-1.67V63.73h1.67v1.454q.407-.734 1.11-1.14.72-.423 1.547-.423 1.36 0 2.188.83.828.812.828 2.375v4.89h-1.672V67.34q0-2.203-1.827-2.203-.875 0-1.532.578-.64.563-.64 1.688zM184.42 79.23q2.814 0 4.33 1.376 1.515 1.375 1.515 3.828 0 2.437-1.47 3.86-1.467 1.42-4.5 1.42h-3.483V79.232h3.61zm4.064 5.235q0-3.594-4.125-3.594h-1.782v7.173h1.968q1.907 0 2.922-.906 1.016-.906 1.016-2.672zm10.977 2h-6.25q.048.86.782 1.406.75.533 1.688.533 1.5 0 2.28-.953l.954 1.046q-1.28 1.344-3.36 1.344-1.67 0-2.86-1.11-1.17-1.124-1.17-3 0-1.89 1.202-3 1.204-1.11 2.83-1.11 1.624 0 2.764.986 1.14.97 1.14 2.703v1.155zm-6.25-1.328h4.563q0-1-.625-1.53-.625-.548-1.547-.548-.92 0-1.655.56-.734.564-.734 1.517zm13.574 2.188q0 1.14-.828 1.828-.828.687-2.125.687-.86 0-1.796-.312-.938-.328-1.656-.89l.812-1.313q1.39 1.062 2.688 1.062.578 0 .906-.266.328-.264.328-.67 0-.594-1.594-1.08-.11-.045-.172-.06-2.5-.673-2.5-2.25 0-1.11.86-1.767.875-.672 2.25-.672t2.61.798l-.626 1.25q-.984-.64-2.125-.64-.594 0-.97.218-.374.22-.374.657 0 .375.392.562.266.14.75.266.5.11.875.235.375.11.72.266.358.157.764.423.814.53.814 1.672zm3.4 2.39h-1.67V81.73h1.67v7.985zm-1.578-9.562q-.312-.328-.312-.75 0-.438.312-.75.328-.328.75-.328.438 0 .75.328.328.312.328.75 0 .422-.328.75-.312.312-.75.312-.422 0-.75-.312zm11.297 1.578v6.97q0 2.11-1.156 3.156-1.14 1.062-2.937 1.062t-3.25-1.125l.797-1.265q1.156.875 2.343.875 1.203 0 1.89-.61.704-.61.704-1.968V87.81q-.375.702-1.078 1.124-.688.422-1.563.422-1.578 0-2.61-1.11-1.015-1.11-1.015-2.75 0-1.656 1.016-2.765 1.03-1.11 2.61-1.11 1.578 0 2.578 1.298V81.73h1.67zm-6.218 3.688q0 .985.593 1.703.61.705 1.64.705 1.032 0 1.673-.688.642-.687.642-1.72 0-1.03-.657-1.733-.64-.72-1.672-.72-1.015 0-1.625.736-.593.734-.593 1.718zm10.1-.015v4.312h-1.67V81.73h1.67v1.454q.407-.734 1.11-1.14.72-.423 1.547-.423 1.36 0 2.187.83.827.812.827 2.375v4.89h-1.67V85.34q0-2.203-1.83-2.203-.875 0-1.53.578-.64.563-.64 1.688z"/><path fill="#efefef" d="M271.947 3.84H406.12v107.59H271.95z"/><path stroke="#000" stroke-linejoin="round" stroke-linecap="butt" d="M271.947 3.84H406.12v107.59H271.95z"/><path fill="#000" d="M293.65 43.23q2.812 0 4.328 1.376 1.515 1.375 1.515 3.828 0 2.437-1.468 3.86-1.47 1.42-4.5 1.42h-3.485V43.232h3.61zm4.062 5.235q0-3.594-4.125-3.594h-1.78v7.173h1.968q1.906 0 2.92-.906 1.017-.906 1.017-2.672zm10.977 2h-6.25q.046.86.78 1.406.75.533 1.688.533 1.5 0 2.28-.953l.954 1.046q-1.28 1.344-3.36 1.344-1.67 0-2.86-1.11-1.17-1.124-1.17-3 0-1.89 1.203-3t2.828-1.11q1.625 0 2.765.986 1.14.97 1.14 2.703v1.155zm-6.25-1.328H307q0-1-.624-1.53-.625-.548-1.546-.548-.922 0-1.657.56-.734.564-.734 1.517zm9.994 4.578l-3.203-7.984h1.735l2.438 6.032 2.422-6.03h1.734l-3.204 7.983h-1.922zm13.696-3.25h-6.25q.047.86.78 1.406.75.533 1.69.533 1.5 0 2.28-.953l.953 1.046q-1.28 1.344-3.36 1.344-1.67 0-2.86-1.11-1.17-1.124-1.17-3 0-1.89 1.203-3t2.828-1.11q1.625 0 2.765.986 1.14.97 1.14 2.703v1.155zm-6.25-1.328h4.562q0-1-.625-1.53-.625-.548-1.546-.548-.92 0-1.656.56-.734.564-.734 1.517zm9.558 4.578h-1.672V42.59h1.672v11.125zm4.203-2.094q.72.72 1.813.72 1.094 0 1.797-.72.72-.733.72-1.89 0-1.155-.72-1.874-.703-.735-1.797-.735-1.093 0-1.812.736-.702.72-.702 1.875 0 1.157.703 1.89zm4.813 1.033q-1.203 1.187-3 1.187-1.796 0-3-1.187-1.203-1.203-1.203-2.922 0-1.734 1.203-2.92 1.204-1.19 3-1.19 1.797 0 3 1.19 1.204 1.186 1.204 2.92 0 1.72-1.204 2.923zm7.15-7.032q1.61 0 2.75 1.11t1.14 2.954q0 1.844-1.14 3-1.125 1.156-2.64 1.156-1.5 0-2.704-1.328v4.11h-1.673V45.73h1.672v1.405q1-1.516 2.593-1.516zm-2.625 4.126q0 1.14.688 1.875.703.72 1.687.72.984 0 1.72-.72.733-.717.733-1.858 0-1.156-.72-1.906-.717-.766-1.717-.766t-1.704.766q-.688.75-.688 1.89zm9.88-.343v4.312h-1.672V45.73h1.672v1.454q.36-.734 1.078-1.14.735-.423 1.58-.423 1.89 0 2.56 1.548 1.19-1.547 2.954-1.547 1.36 0 2.188.83.828.812.828 2.375v4.89h-1.672V49.34q0-2.203-1.828-2.203-.86 0-1.5.547t-.656 1.594v4.437h-1.688V49.34q0-1.14-.406-1.672-.406-.53-1.28-.53-.86 0-1.517.577-.642.563-.642 1.688zm20.612 1.062h-6.25q.047.86.78 1.406.75.533 1.69.533 1.5 0 2.28-.953l.953 1.046q-1.28 1.344-3.36 1.344-1.67 0-2.86-1.11-1.17-1.124-1.17-3 0-1.89 1.202-3 1.204-1.11 2.83-1.11 1.624 0 2.764.986 1.14.97 1.14 2.703v1.155zm-6.25-1.328h4.562q0-1-.625-1.53-.625-.548-1.547-.548-.92 0-1.656.56-.734.564-.734 1.517zm9.557.266v4.312h-1.67V45.73h1.67v1.454q.407-.734 1.11-1.14.72-.423 1.547-.423 1.36 0 2.187.83.83.812.83 2.375v4.89h-1.673V49.34q0-2.203-1.828-2.203-.876 0-1.532.578-.64.563-.64 1.688zm9.86-2.313v4.047q0 .563.296.906.312.344.844.344.547 0 1.03-.53l.704 1.186q-.89.797-1.968.797-1.062 0-1.828-.734-.75-.75-.75-2.016v-4h-1.015v-1.36h1.014v-2.5h1.672v2.5h2.11v1.36h-2.11zM302 63.45q-.592 1.86-.592 3.593 0 1.72.593 3.594.595 1.86 1.47 3.078h-1.78q-.735-1.03-1.345-2.922-.61-1.89-.61-3.765 0-1.875.61-3.75.61-1.89 1.344-2.922h1.78q-.875 1.22-1.47 3.094zm7.274-.594v8.86h-1.782v-8.86h-3.172V61.23h8.125v1.626h-3.17zm12.07 5.61h-6.25q.048.86.782 1.405.75.533 1.687.533 1.5 0 2.282-.953l.953 1.046q-1.28 1.344-3.36 1.344-1.67 0-2.86-1.11-1.17-1.124-1.17-3 0-1.89 1.202-3 1.203-1.11 2.828-1.11 1.625 0 2.766.986 1.14.97 1.14 2.703v1.155zm-6.25-1.33h4.563q0-1-.625-1.53-.625-.547-1.547-.547-.922 0-1.656.56-.735.564-.735 1.517zm11.418 4.704q-1.657 0-2.86-1.125-1.203-1.14-1.203-2.97 0-1.842 1.25-2.983 1.25-1.14 3.046-1.14 1.813 0 3.063 1.234l-1 1.22q-1.033-.908-2.08-.908-1.046 0-1.828.703-.765.705-.765 1.814 0 1.094.765 1.86.766.765 1.875.765 1.125 0 2.11-1.032l.984 1.093q-1.452 1.47-3.358 1.47zm6.582-4.437v4.312h-1.672v-11.11h1.672v4.58q.36-.735 1.078-1.142.735-.422 1.58-.422 1.358 0 2.186.83.828.812.828 2.375v4.89h-1.672V67.34q0-2.203-1.828-2.203-.875 0-1.53.578-.642.563-.642 1.688zm9.468 0v4.312h-1.672V63.73h1.672v1.454q.407-.734 1.11-1.14.718-.423 1.547-.423 1.358 0 2.186.83.828.812.828 2.375v4.89h-1.672V67.34q0-2.203-1.828-2.203-.875 0-1.53.578-.642.563-.642 1.688zm9.468 4.312h-1.672V63.73h1.672v7.985zm-1.578-9.562q-.312-.328-.312-.75 0-.438.312-.75.328-.328.75-.328.438 0 .75.328.328.312.328.75 0 .422-.328.75-.312.312-.75.312-.422 0-.75-.312zm7.453 9.687q-1.656 0-2.86-1.125-1.202-1.14-1.202-2.97 0-1.842 1.25-2.983 1.25-1.14 3.047-1.14 1.812 0 3.062 1.234l-1 1.22q-1.03-.908-2.078-.908-1.047 0-1.828.703-.766.705-.766 1.814 0 1.094.766 1.86.766.765 1.875.765 1.126 0 2.11-1.032l.985 1.093q-1.453 1.47-3.36 1.47zm11.38-.125h-1.53v-1.062q-1 1.187-2.657 1.187-1.25 0-2.08-.703-.81-.72-.81-1.89 0-1.172.874-1.75.875-.594 2.36-.594h2.17v-.297q0-1.594-1.764-1.594-1.11 0-2.313.813l-.75-1.047q1.453-1.157 3.297-1.157 1.406 0 2.297.72.905.703.905 2.235v5.14zm-1.687-2.97v-.67h-1.89q-1.814 0-1.814 1.14 0 .578.438.89.453.298 1.25.298.812 0 1.406-.438.61-.453.61-1.22zm5.493 2.97h-1.67V60.59h1.67v11.125zm3.08-1.078q.61-1.875.61-3.594 0-1.734-.61-3.593-.594-1.875-1.453-3.094h1.78q.735 1.03 1.345 2.922.61 1.875.61 3.75t-.61 3.765q-.61 1.89-1.344 2.922h-1.78q.858-1.22 1.452-3.078z"/><path fill="#efefef" d="M406.12 3.84h134.174v107.59H406.12z"/><path stroke="#000" stroke-linejoin="round" stroke-linecap="butt" d="M406.12 3.84h134.174v107.59H406.12z"/><path fill="#000" d="M451.368 53.856v8.86h-1.78v-8.86h-3.173V52.23h8.125v1.626h-3.172zm12.072 5.61h-6.25q.047.86.78 1.405.75.533 1.688.533 1.5 0 2.282-.953l.953 1.046q-1.28 1.344-3.36 1.344-1.67 0-2.86-1.11-1.17-1.124-1.17-3 0-1.89 1.202-3 1.203-1.11 2.828-1.11 1.625 0 2.766.986 1.14.97 1.14 2.703v1.155zm-6.25-1.33h4.562q0-1-.625-1.53-.625-.547-1.547-.547-.922 0-1.656.56-.734.564-.734 1.517zm13.573 2.19q0 1.14-.828 1.827t-2.125.687q-.86 0-1.797-.312-.938-.328-1.656-.89l.812-1.313q1.39 1.062 2.687 1.062.578 0 .906-.266.328-.264.328-.67 0-.594-1.593-1.08-.11-.045-.172-.06-2.5-.673-2.5-2.25 0-1.11.86-1.767.875-.672 2.25-.672t2.61.798l-.626 1.25q-.985-.64-2.126-.64-.594 0-.97.218-.374.22-.374.657 0 .375.39.562.267.14.75.266.5.11.876.235.375.11.72.266.358.157.764.423.813.53.813 1.672zm3.79-4.236v4.047q0 .563.298.906.313.344.845.344.546 0 1.03-.53l.704 1.186q-.892.797-1.97.797-1.062 0-1.828-.734-.75-.75-.75-2.016v-4h-1.016v-1.36h1.016v-2.5h1.672v2.5h2.11v1.36h-2.11zm5.737 6.625h-1.672V54.73h1.672v7.985zm-1.578-9.562q-.313-.328-.313-.75 0-.438.312-.75.328-.328.75-.328.437 0 .75.328.328.312.328.75 0 .422-.328.75-.313.312-.75.312-.422 0-.75-.312zm5.594 5.25v4.312h-1.672V54.73h1.672v1.454q.406-.734 1.11-1.14.718-.423 1.546-.423 1.36 0 2.187.83.827.812.827 2.375v4.89h-1.67V58.34q0-2.203-1.83-2.203-.875 0-1.53.578-.64.563-.64 1.688zm15.17-3.672v6.97q0 2.11-1.156 3.156-1.14 1.062-2.937 1.062t-3.25-1.125l.797-1.265q1.156.875 2.343.875 1.204 0 1.89-.61.704-.61.704-1.968V60.81q-.375.702-1.078 1.124-.688.422-1.563.422-1.58 0-2.61-1.11-1.015-1.11-1.015-2.75 0-1.656 1.015-2.765 1.03-1.11 2.61-1.11 1.578 0 2.578 1.298V54.73h1.672zm-6.218 3.688q0 .985.594 1.703.61.705 1.64.705 1.03 0 1.672-.688.64-.687.64-1.72 0-1.03-.656-1.733-.64-.72-1.67-.72-1.017 0-1.626.736-.594.734-.594 1.718z"/><path fill="#efefef" d="M137.774 111.43h536.693v107.59H137.774z"/><path stroke="#000" stroke-linejoin="round" stroke-linecap="butt" d="M137.774 111.43h536.693v107.59H137.774z"/><path fill="#000" d="M333.036 159.82q2.375 0 3.47.923 1.092.906 1.092 2.813 0 1.906-1.125 2.797-1.11.875-3.422.875h-1.858v3.078h-1.766V159.82h3.61zm.22 5.798q1.467 0 2-.562.53-.563.53-1.64 0-1.095-.672-1.532-.672-.453-2.11-.453h-1.812v4.188h2.063zm10.148-1.72q-1.25 0-1.89.814-.625.812-.625 2.172v3.422h-1.673v-7.985h1.672v1.61q.405-.75 1.093-1.218.703-.484 1.484-.5l.016 1.687h-.08zm3.49 4.314q.72.72 1.813.72 1.094 0 1.797-.72.72-.734.72-1.89 0-1.157-.72-1.876-.703-.734-1.797-.734-1.093 0-1.812.734-.703.72-.703 1.875 0 1.158.703 1.892zm4.813 1.03q-1.203 1.19-3 1.19-1.796 0-3-1.19-1.203-1.202-1.203-2.92 0-1.735 1.203-2.923 1.204-1.188 3-1.188 1.797 0 3 1.187 1.204 1.187 1.204 2.92 0 1.72-1.203 2.923zm2.884 1.44v-8.36h1.673v8.42q0 1.25-.765 2-.75.75-1.828.75-1.063 0-1.954-.796l.782-1.265q.515.5 1.03.5.517 0 .782-.343.28-.328.28-.906zm.064-9.94q-.313-.327-.313-.75 0-.436.314-.75.328-.327.75-.327.437 0 .75.328.328.313.328.75 0 .422-.328.75-.313.313-.75.313-.422 0-.75-.313zm11.375 6.314h-6.25q.046.86.78 1.406.75.53 1.688.53 1.5 0 2.28-.952l.954 1.047q-1.28 1.344-3.36 1.344-1.67 0-2.858-1.11-1.172-1.124-1.172-3 0-1.89 1.203-3 1.203-1.108 2.828-1.108 1.625 0 2.766.984 1.14.97 1.14 2.703v1.156zm-6.25-1.328h4.562q0-1-.625-1.532-.625-.547-1.547-.547-.922 0-1.656.562-.735.562-.735 1.516zm11.416 4.703q-1.656 0-2.86-1.124-1.202-1.14-1.202-2.97 0-1.843 1.25-2.983 1.25-1.14 3.047-1.14 1.813 0 3.063 1.233l-1 1.22q-1.03-.907-2.078-.907-1.047 0-1.828.702-.766.703-.766 1.812 0 1.094.767 1.86.765.765 1.875.765 1.125 0 2.11-1.032l.984 1.094q-1.454 1.47-3.36 1.47zm6.973-6.75v4.048q0 .562.296.906.313.344.844.344.547 0 1.03-.532l.704 1.188q-.89.797-1.968.797-1.063 0-1.828-.734-.75-.75-.75-2.015v-4h-1.016v-1.36h1.016v-2.5h1.67v2.5h2.11v1.36h-2.11zm10.08 6.626h-1.767V159.82h2.766l3.155 6.58 3.172-6.58h2.75v10.486h-1.78v-8.188l-3.657 7.266h-.985l-3.656-7.266v8.188zm18.875 0h-1.53v-1.063q-1 1.188-2.657 1.188-1.25 0-2.08-.702-.81-.72-.81-1.89 0-1.173.874-1.75.875-.595 2.36-.595h2.17v-.297q0-1.593-1.764-1.593-1.11 0-2.313.812l-.75-1.047q1.453-1.156 3.297-1.156 1.406 0 2.297.72.905.702.905 2.233v5.14zm-1.687-2.97v-.67h-1.89q-1.814 0-1.814 1.14 0 .578.438.89.453.297 1.25.297.812 0 1.406-.437.61-.453.61-1.22zm5.493-1.343v4.313h-1.67v-7.985h1.67v1.454q.408-.734 1.11-1.14.72-.422 1.548-.422 1.36 0 2.187.828.828.813.828 2.375v4.89h-1.672v-4.374q0-2.202-1.827-2.202-.875 0-1.53.578-.642.562-.642 1.687zm14.266 4.313h-1.53v-1.063q-1 1.188-2.657 1.188-1.25 0-2.08-.702-.812-.72-.812-1.89 0-1.173.875-1.75.875-.595 2.36-.595h2.17v-.297q0-1.593-1.764-1.593-1.11 0-2.314.812l-.75-1.047q1.453-1.156 3.297-1.156 1.406 0 2.297.72.906.702.906 2.233v5.14zm-1.687-2.97v-.67h-1.892q-1.812 0-1.812 1.14 0 .578.437.89.453.297 1.25.297.813 0 1.406-.437.61-.453.61-1.22zm11.196-5.015v6.97q0 2.11-1.157 3.156-1.14 1.063-2.938 1.063-1.797 0-3.25-1.126l.797-1.266q1.155.875 2.343.875 1.203 0 1.89-.61.703-.61.703-1.968V168.4q-.375.703-1.078 1.124-.687.422-1.562.422-1.578 0-2.61-1.11-1.015-1.108-1.015-2.75 0-1.655 1.016-2.765 1.032-1.108 2.61-1.108 1.578 0 2.578 1.297v-1.19h1.672zm-6.22 3.69q0 .983.595 1.702.61.703 1.64.703 1.033 0 1.673-.687.64-.688.64-1.72 0-1.03-.655-1.734-.64-.718-1.672-.718-1.016 0-1.625.734-.593.734-.593 1.72zm15.852 1.046h-6.25q.047.86.78 1.406.75.53 1.69.53 1.5 0 2.28-.952l.953 1.047q-1.28 1.344-3.358 1.344-1.672 0-2.86-1.11-1.172-1.124-1.172-3 0-1.89 1.203-3 1.204-1.108 2.83-1.108 1.624 0 2.764.984 1.14.97 1.14 2.703v1.156zm-6.25-1.328h4.562q0-1-.625-1.532-.625-.547-1.547-.547-.92 0-1.656.562-.734.562-.734 1.516zm9.557.265v4.313h-1.67v-7.985h1.67v1.454q.36-.734 1.08-1.14.733-.422 1.577-.422 1.89 0 2.562 1.547 1.188-1.548 2.953-1.548 1.36 0 2.188.828.828.813.828 2.375v4.89h-1.672v-4.374q0-2.202-1.827-2.202-.86 0-1.5.546-.64.547-.656 1.594v4.438h-1.688v-4.375q0-1.14-.407-1.67-.406-.532-1.28-.532-.86 0-1.517.578-.64.562-.64 1.687zm20.612 1.063h-6.25q.047.86.78 1.406.75.53 1.69.53 1.5 0 2.28-.952l.953 1.047q-1.28 1.344-3.36 1.344-1.67 0-2.86-1.11-1.17-1.124-1.17-3 0-1.89 1.203-3 1.203-1.108 2.828-1.108 1.626 0 2.766.984 1.14.97 1.14 2.703v1.156zm-6.25-1.328h4.562q0-1-.626-1.532-.625-.547-1.546-.547-.922 0-1.657.562-.733.562-.733 1.516zm9.558.265v4.313h-1.672v-7.985h1.672v1.454q.406-.734 1.11-1.14.718-.422 1.546-.422 1.36 0 2.188.828.828.813.828 2.375v4.89h-1.67v-4.374q0-2.202-1.83-2.202-.875 0-1.53.578-.64.562-.64 1.687zm9.858-2.312v4.048q0 .562.297.906.312.344.844.344.547 0 1.03-.532l.704 1.188q-.89.797-1.97.797-1.06 0-1.827-.734-.75-.75-.75-2.015v-4h-1.014v-1.36h1.015v-2.5h1.673v2.5h2.11v1.36h-2.11z"/><path fill="#efefef" d="M3.6 219.02h805.04v107.592H3.6z"/><path stroke="#000" stroke-linejoin="round" stroke-linecap="butt" d="M3.6 219.02h805.04v107.592H3.6z"/><path fill="#000" d="M326.243 275.506l-1.047 2.39h-1.89l4.624-10.484h1.89l4.61 10.484h-1.89l-1.047-2.39h-5.25zm4.53-1.625l-1.905-4.327-1.906 4.328h3.812zm8.157 4.14q-1.656 0-2.86-1.124-1.202-1.14-1.202-2.968 0-1.844 1.25-2.985 1.25-1.14 3.047-1.14 1.812 0 3.062 1.234l-1 1.22q-1.03-.908-2.078-.908-1.048 0-1.83.703-.765.703-.765 1.812 0 1.094.766 1.86.767.765 1.876.765 1.125 0 2.11-1.03l.984 1.093q-1.453 1.468-3.36 1.468zm8.442 0q-1.656 0-2.86-1.124-1.202-1.14-1.202-2.968 0-1.844 1.25-2.985 1.25-1.14 3.047-1.14 1.812 0 3.062 1.234l-1 1.22q-1.032-.908-2.08-.908-1.046 0-1.827.703-.766.703-.766 1.812 0 1.094.766 1.86.766.765 1.875.765 1.125 0 2.11-1.03l.984 1.093q-1.453 1.468-3.36 1.468zm6.77-2.217q.72.718 1.813.718 1.094 0 1.797-.717.72-.735.72-1.89 0-1.157-.72-1.876-.703-.734-1.797-.734-1.094 0-1.813.734-.703.72-.703 1.875 0 1.156.702 1.89zm4.813 1.03q-1.203 1.188-3 1.188t-3-1.186q-1.203-1.203-1.203-2.922 0-1.734 1.203-2.922 1.203-1.187 3-1.187t3 1.187q1.203 1.188 1.203 2.922 0 1.72-1.203 2.922zm8.462-2.593v-4.328h1.672v7.984h-1.673v-1.453q-.406.735-1.125 1.156-.703.42-1.53.42-1.345 0-2.19-.827-.827-.828-.827-2.39v-4.89h1.688v4.39q0 2.203 1.828 2.203.86 0 1.5-.578.657-.58.657-1.688zm5.562-.656v4.312h-1.673v-7.984h1.672v1.453q.405-.734 1.108-1.14.72-.422 1.547-.422 1.36 0 2.188.828.828.813.828 2.376v4.89h-1.67v-4.375q0-2.202-1.83-2.202-.874 0-1.53.578-.64.563-.64 1.688zm9.857-2.313v4.048q0 .563.297.906.313.344.844.344.547 0 1.03-.53l.704 1.186q-.89.797-1.968.797-1.063 0-1.828-.733-.75-.75-.75-2.016v-4h-1.016v-1.358h1.016v-2.5h1.67v2.5h2.11v1.36h-2.11zm10.08 6.626h-1.766v-10.484h2.767l3.156 6.578 3.172-6.578h2.75v10.484h-1.78v-8.187l-3.657 7.264h-.985l-3.656-7.265v8.186zm18.876 0h-1.53v-1.062q-1 1.187-2.657 1.187-1.25 0-2.08-.702-.81-.72-.81-1.89 0-1.172.874-1.75.875-.594 2.36-.594h2.17v-.297q0-1.594-1.764-1.594-1.11 0-2.313.813l-.75-1.047q1.453-1.157 3.297-1.157 1.406 0 2.297.718.906.704.906 2.236v5.14zm-1.687-2.968v-.672h-1.89q-1.814 0-1.814 1.14 0 .578.438.89.453.298 1.25.298.812 0 1.406-.438.61-.453.61-1.218zm5.493-1.344v4.312h-1.673v-7.984h1.672v1.453q.406-.734 1.11-1.14.717-.422 1.546-.422 1.36 0 2.187.828.828.813.828 2.376v4.89h-1.67v-4.375q0-2.202-1.83-2.202-.874 0-1.53.578-.64.563-.64 1.688zm14.264 4.312h-1.53v-1.062q-1 1.187-2.657 1.187-1.25 0-2.078-.702-.814-.72-.814-1.89 0-1.172.875-1.75.876-.594 2.36-.594h2.172v-.297q0-1.594-1.765-1.594-1.11 0-2.313.813l-.75-1.047q1.453-1.157 3.297-1.157 1.407 0 2.298.718.906.704.906 2.236v5.14zm-1.687-2.968v-.672h-1.89q-1.813 0-1.813 1.14 0 .578.437.89.454.298 1.25.298.814 0 1.407-.438.61-.453.61-1.218zm11.197-5.016v6.97q0 2.108-1.157 3.155-1.14 1.062-2.937 1.062t-3.25-1.126l.797-1.265q1.156.874 2.344.874 1.204 0 1.89-.61.704-.61.704-1.968v-1.016q-.375.703-1.078 1.125-.687.422-1.562.422-1.578 0-2.61-1.11-1.015-1.11-1.015-2.75 0-1.656 1.014-2.765 1.032-1.11 2.61-1.11 1.578 0 2.578 1.297v-1.188h1.672zm-6.22 3.687q0 .984.595 1.703.608.703 1.64.703 1.03 0 1.67-.688.642-.687.642-1.72 0-1.03-.656-1.733-.64-.72-1.672-.72-1.016 0-1.625.736-.595.735-.595 1.72zm15.852 1.046h-6.25q.047.86.78 1.407.75.53 1.69.53 1.5 0 2.28-.952l.953 1.048q-1.282 1.343-3.36 1.343-1.672 0-2.86-1.108-1.172-1.125-1.172-3 0-1.89 1.203-3 1.205-1.11 2.83-1.11t2.765.985q1.14.97 1.14 2.703v1.156zm-6.25-1.328h4.562q0-1-.625-1.53-.625-.548-1.547-.548-.92 0-1.656.563-.734.562-.734 1.515zm9.557.266v4.312h-1.67v-7.984h1.67v1.453q.36-.734 1.08-1.14.733-.422 1.577-.422 1.89 0 2.562 1.546 1.188-1.547 2.953-1.547 1.36 0 2.188.828.828.813.828 2.376v4.89h-1.67v-4.375q0-2.202-1.83-2.202-.858 0-1.5.547-.64.547-.655 1.594v4.436h-1.688v-4.375q0-1.14-.406-1.67-.405-.532-1.28-.532-.86 0-1.516.578-.64.563-.64 1.688zm20.612 1.062h-6.25q.047.86.78 1.407.75.53 1.69.53 1.5 0 2.28-.952l.953 1.048q-1.28 1.343-3.36 1.343-1.67 0-2.86-1.108-1.17-1.125-1.17-3 0-1.89 1.203-3 1.204-1.11 2.83-1.11 1.624 0 2.764.985 1.14.97 1.14 2.703v1.156zm-6.25-1.328h4.562q0-1-.625-1.53-.625-.548-1.546-.548-.922 0-1.657.563-.735.562-.735 1.515zm9.558.266v4.312h-1.672v-7.984h1.673v1.453q.406-.734 1.11-1.14.718-.422 1.546-.422 1.358 0 2.186.828.828.813.828 2.376v4.89h-1.67v-4.375q0-2.202-1.83-2.202-.875 0-1.53.578-.64.563-.64 1.688zm9.858-2.313v4.048q0 .563.298.906.312.344.844.344.547 0 1.03-.53l.704 1.186q-.89.797-1.97.797-1.06 0-1.827-.733-.75-.75-.75-2.016v-4h-1.016v-1.358h1.015v-2.5h1.67v2.5h2.11v1.36h-2.11z"/><path fill="#efefef" d="M540.294 3.84h134.173v107.59H540.294z"/><path stroke="#000" stroke-linejoin="round" stroke-linecap="butt" d="M540.294 3.84h134.173v107.59H540.294z"/><path fill="#000" d="M594.42 42.325q.718.828 1.936.828 1.235 0 1.954-.828.734-.844.734-2.297V34.23h1.766v5.876q0 2.265-1.25 3.5-1.25 1.22-3.204 1.22-1.937 0-3.187-1.22-1.25-1.235-1.25-3.5V34.23h1.78v5.798q0 1.453.72 2.297zm14.35 0q0 1.14-.83 1.828-.828.687-2.124.687-.86 0-1.797-.312-.94-.328-1.658-.89l.813-1.313q1.39 1.062 2.687 1.062.58 0 .907-.266.327-.264.327-.67 0-.594-1.594-1.08-.11-.045-.172-.06-2.5-.673-2.5-2.25 0-1.11.86-1.767.876-.672 2.25-.672 1.376 0 2.61.798l-.625 1.25q-.984-.64-2.125-.64-.594 0-.97.218-.374.22-.374.657 0 .375.39.562.266.14.75.266.5.11.876.235.375.11.72.266.358.157.764.423.813.53.813 1.672zm9.15-.86h-6.25q.046.86.78 1.406.75.533 1.688.533 1.5 0 2.28-.953l.954 1.046q-1.28 1.344-3.36 1.344-1.67 0-2.858-1.11-1.172-1.124-1.172-3 0-1.89 1.203-3t2.828-1.11q1.625 0 2.766.986 1.14.97 1.14 2.703v1.155zm-6.25-1.328h4.562q0-1-.625-1.53-.625-.548-1.547-.548-.922 0-1.656.56-.735.564-.735 1.517zm12.072-1.828q-1.25 0-1.89.81-.625.814-.625 2.173v3.422h-1.672V36.73h1.672v1.61q.406-.75 1.094-1.22.704-.483 1.485-.5l.016 1.69h-.078zM566.137 60.325l-1.047 2.39h-1.89l4.624-10.484h1.89l4.61 10.485h-1.89l-1.047-2.39h-5.25zm4.53-1.625l-1.905-4.33-1.907 4.33h3.813zm8.157 4.14q-1.656 0-2.86-1.125-1.202-1.14-1.202-2.97 0-1.842 1.25-2.983 1.25-1.14 3.046-1.14 1.813 0 3.063 1.234l-1 1.22q-1.03-.908-2.077-.908t-1.828.703q-.766.705-.766 1.814 0 1.094.765 1.86.765.765 1.875.765 1.125 0 2.11-1.032l.983 1.093q-1.453 1.47-3.36 1.47zm8.442 0q-1.656 0-2.86-1.125-1.202-1.14-1.202-2.97 0-1.842 1.25-2.983 1.25-1.14 3.046-1.14 1.813 0 3.063 1.234l-1 1.22q-1.03-.908-2.078-.908-1.047 0-1.828.703-.766.705-.766 1.814 0 1.094.767 1.86.765.765 1.875.765 1.125 0 2.11-1.032l.983 1.093q-1.453 1.47-3.36 1.47zm12.333-3.375h-6.25q.046.86.78 1.406.75.533 1.688.533 1.5 0 2.28-.953l.954 1.046q-1.28 1.344-3.36 1.344-1.67 0-2.86-1.11-1.17-1.124-1.17-3 0-1.89 1.202-3 1.204-1.11 2.83-1.11 1.624 0 2.764.986 1.14.97 1.14 2.703v1.155zm-6.25-1.328h4.56q0-1-.624-1.53-.625-.548-1.547-.548-.922 0-1.657.56-.734.564-.734 1.517zm12.15-3.516q1.61 0 2.75 1.11t1.14 2.954q0 1.844-1.14 3-1.125 1.156-2.64 1.156-1.5 0-2.704-1.328v4.11h-1.67V54.73h1.67v1.405q1-1.516 2.594-1.516zm-2.625 4.126q0 1.14.688 1.875.703.72 1.687.72.985 0 1.72-.72.733-.717.733-1.858 0-1.156-.718-1.906-.72-.766-1.72-.766t-1.702.766q-.688.75-.688 1.89zm10.27-2.656v4.047q0 .563.298.906.312.344.844.344.547 0 1.03-.53l.704 1.186q-.89.797-1.968.797-1.062 0-1.828-.734-.75-.75-.75-2.016v-4h-1.015v-1.36h1.014v-2.5h1.672v2.5h2.11v1.36h-2.11zm10.534 6.625h-1.533v-1.062q-1 1.187-2.656 1.187-1.25 0-2.077-.703-.812-.72-.812-1.89 0-1.172.876-1.75.875-.594 2.36-.594h2.17v-.297q0-1.594-1.765-1.594-1.108 0-2.31.813l-.75-1.047q1.452-1.157 3.296-1.157 1.406 0 2.296.72.907.703.907 2.235v5.14zm-1.69-2.97v-.67h-1.89q-1.812 0-1.812 1.14 0 .578.438.89.453.298 1.25.298.812 0 1.406-.438.61-.453.61-1.22zm5.495-1.342v4.312h-1.672V54.73h1.672v1.454q.406-.734 1.11-1.14.718-.423 1.546-.423 1.36 0 2.19.83.827.812.827 2.375v4.89h-1.672V58.34q0-2.203-1.828-2.203-.875 0-1.53.578-.642.563-.642 1.688zm11.327 4.437q-1.656 0-2.86-1.125-1.202-1.14-1.202-2.97 0-1.842 1.25-2.983 1.25-1.14 3.047-1.14 1.812 0 3.062 1.234l-1 1.22q-1.032-.908-2.08-.908-1.046 0-1.827.703-.766.705-.766 1.814 0 1.094.766 1.86.766.765 1.875.765 1.125 0 2.11-1.032l.984 1.093q-1.453 1.47-3.36 1.47zm12.333-3.375h-6.25q.047.86.78 1.406.75.533 1.69.533 1.5 0 2.28-.953l.953 1.046q-1.28 1.344-3.36 1.344-1.67 0-2.86-1.11-1.17-1.124-1.17-3 0-1.89 1.203-3 1.204-1.11 2.83-1.11 1.624 0 2.764.986 1.14.97 1.14 2.703v1.155zm-6.25-1.328h4.563q0-1-.625-1.53-.625-.548-1.547-.548-.922 0-1.657.56-.735.564-.735 1.517zM585.542 71.856v8.86h-1.782v-8.86h-3.17V70.23h8.124v1.626h-3.172zm12.07 5.61h-6.25q.048.86.782 1.405.75.533 1.688.533 1.5 0 2.28-.953l.954 1.046q-1.28 1.344-3.36 1.344-1.67 0-2.86-1.11-1.17-1.124-1.17-3 0-1.89 1.202-3 1.204-1.11 2.83-1.11 1.624 0 2.764.986 1.14.97 1.14 2.703v1.155zm-6.25-1.33h4.563q0-1-.625-1.53-.625-.547-1.547-.547-.92 0-1.656.56-.734.564-.734 1.517zm13.574 2.19q0 1.14-.828 1.827t-2.125.687q-.86 0-1.797-.312-.937-.328-1.656-.89l.812-1.313q1.39 1.062 2.688 1.062.578 0 .906-.266.328-.264.328-.67 0-.594-1.594-1.08-.11-.045-.17-.06-2.5-.673-2.5-2.25 0-1.11.858-1.767.875-.672 2.25-.672t2.61.798l-.626 1.25q-.984-.64-2.125-.64-.593 0-.968.218-.376.22-.376.657 0 .375.39.562.266.14.75.266.5.11.875.235.374.11.718.266.36.157.766.423.812.53.812 1.672zm3.79-4.236v4.047q0 .563.298.906.313.344.844.344.547 0 1.03-.53l.704 1.186q-.89.797-1.97.797-1.06 0-1.827-.734-.75-.75-.75-2.016v-4h-1.015v-1.36h1.015v-2.5h1.672v2.5h2.11v1.36h-2.11zm5.737 6.625h-1.672V72.73h1.673v7.985zm-1.578-9.562q-.313-.328-.313-.75 0-.438.313-.75.328-.328.75-.328.437 0 .75.328.328.312.328.75 0 .422-.328.75-.313.312-.75.312-.422 0-.75-.312zm5.594 5.25v4.312h-1.673V72.73h1.672v1.454q.405-.734 1.108-1.14.72-.423 1.547-.423 1.36 0 2.188.83.828.812.828 2.375v4.89h-1.67V76.34q0-2.203-1.83-2.203-.874 0-1.53.578-.64.563-.64 1.688zm15.17-3.672v6.97q0 2.11-1.156 3.156-1.14 1.062-2.938 1.062-1.797 0-3.25-1.125l.797-1.265q1.156.875 2.344.875 1.203 0 1.89-.61.703-.61.703-1.968V78.81q-.375.702-1.078 1.124-.687.422-1.562.422-1.578 0-2.61-1.11-1.015-1.11-1.015-2.75 0-1.656 1.015-2.765 1.032-1.11 2.61-1.11 1.578 0 2.578 1.298V72.73h1.672zm-6.22 3.688q0 .985.595 1.703.61.705 1.64.705 1.032 0 1.672-.688.64-.687.64-1.72 0-1.03-.655-1.733-.64-.72-1.672-.72-1.016 0-1.625.736-.594.734-.594 1.718z"/><path fill="#efefef" d="M674.467 3.84H808.64v215.18H674.467z"/><path stroke="#000" stroke-linejoin="round" stroke-linecap="butt" d="M674.467 3.84H808.64v215.18H674.467z"/><path fill="#000" d="M707.136 107.51V97.026h1.765v4.547h5.22v-4.547h1.766v10.484h-1.766v-4.296h-5.22v4.296h-1.764zm13.013-2.093q.717.718 1.81.718 1.095 0 1.798-.718.72-.735.72-1.89 0-1.157-.72-1.876-.703-.733-1.797-.733-1.093 0-1.81.734-.705.72-.705 1.876t.704 1.89zm4.81 1.03q-1.202 1.188-3 1.188-1.796 0-3-1.187-1.202-1.203-1.202-2.922 0-1.734 1.203-2.922 1.204-1.187 3-1.187 1.798 0 3 1.187 1.204 1.188 1.204 2.922 0 1.72-1.203 2.922zm8.573-1.327q0 1.14-.83 1.828-.827.687-2.124.687-.86 0-1.797-.312-.938-.328-1.657-.89l.813-1.313q1.39 1.062 2.686 1.062.578 0 .907-.265.328-.266.328-.672 0-.594-1.593-1.078-.11-.047-.172-.063-2.5-.672-2.5-2.25 0-1.11.86-1.765.874-.673 2.25-.673 1.374 0 2.61.797l-.626 1.25q-.986-.64-2.126-.64-.594 0-.97.218-.374.218-.374.656 0 .375.39.562.266.14.75.266.5.11.876.234.375.11.718.266.36.156.766.422.813.53.813 1.672zm3.79-4.235v4.047q0 .563.298.907.313.342.844.342.547 0 1.032-.53l.703 1.187q-.892.795-1.97.795-1.063 0-1.828-.734-.75-.75-.75-2.015v-4h-1.016v-1.36h1.016v-2.5h1.672v2.5h2.11v1.36h-2.11zm5.736 6.625h-1.673v-7.984h1.672v7.984zm-1.58-9.562q-.31-.328-.31-.75 0-.438.31-.75.33-.328.75-.328.44 0 .75.328.33.312.33.75 0 .422-.33.75-.31.312-.75.312-.42 0-.75-.312zm5.595 5.25v4.312h-1.672v-7.984h1.672v1.453q.406-.735 1.11-1.14.718-.423 1.546-.423 1.36 0 2.19.828.827.812.827 2.375v4.89h-1.672v-4.375q0-2.203-1.828-2.203-.875 0-1.53.578-.642.563-.642 1.688zm15.17-3.672v6.97q0 2.108-1.155 3.155-1.14 1.064-2.937 1.064t-3.25-1.125l.796-1.267q1.156.875 2.343.875 1.203 0 1.89-.61.704-.61.704-1.968v-1.016q-.375.703-1.078 1.125-.69.42-1.564.42-1.578 0-2.61-1.108-1.015-1.11-1.015-2.75 0-1.657 1.017-2.766 1.03-1.11 2.61-1.11 1.577 0 2.577 1.298v-1.188h1.672zm-6.217 3.688q0 .984.593 1.703.61.703 1.642.703 1.03 0 1.672-.688.64-.687.64-1.718 0-1.032-.656-1.735-.64-.72-1.672-.72-1.015 0-1.625.735-.592.734-.592 1.72zm15.507 4.42q-1.47 0-2.516-.81-1.032-.83-1.032-2.25 0-1.704 2.453-3.017-.608-.703-.858-1.156-.25-.452-.25-1.14 0-1.203.89-1.843.89-.64 2.078-.64 1.204 0 2.047.608.844.61.844 1.72 0 1.484-2.405 2.812 1.203 1.468 1.953 2.25.47-.688.72-1.61l1.233.875q-.39 1.032-.89 1.813.61.61 1.532 1.484l-1.125 1.046-1.375-1.36q-1.328 1.22-3.297 1.22zm-1.875-2.983q0 .673.562 1.11.578.422 1.516.422.953 0 2.016-.875-1.516-1.593-2.407-2.672-1.687.922-1.687 2.016zm2.64-6.546q-.5 0-.906.313-.39.312-.39.734 0 .423.203.767.203.328.703.937 1.687-.844 1.687-1.562 0-.594-.406-.89-.39-.298-.89-.298zM716.23 116.4q-.767 0-1.267.33-.5.312-.5.952 0 .625.5.97.5.327 2.11.718 1.61.39 2.42 1.11.83.702.83 2.077 0 1.36-1.047 2.22-1.032.858-2.704.858-2.468 0-4.375-1.703l1.11-1.328q1.594 1.375 3.312 1.375.843 0 1.343-.36.516-.375.516-.985t-.486-.937q-.468-.344-1.625-.61-1.157-.28-1.75-.515-.594-.234-1.063-.61-.938-.703-.938-2.156 0-1.468 1.062-2.25 1.062-.78 2.61-.78 1.015 0 2 .327 1 .328 1.718.922l-.953 1.344q-.47-.422-1.266-.688-.78-.28-1.56-.28zm11.404 5.454v-4.328h1.672v7.984h-1.672v-1.453q-.406.735-1.125 1.157-.704.42-1.532.42-1.344 0-2.188-.827-.828-.828-.828-2.39v-4.89h1.688v4.39q0 2.203 1.828 2.203.86 0 1.5-.578.656-.578.656-1.688zm8.155-4.437q1.61 0 2.75 1.11 1.14 1.108 1.14 2.952 0 1.843-1.14 3-1.126 1.155-2.64 1.155-1.5 0-2.704-1.328v4.11h-1.672v-10.89h1.672v1.405q1-1.515 2.593-1.515zm-2.626 4.125q0 1.14.688 1.875.703.718 1.687.718.984 0 1.718-.718.735-.72.735-1.86 0-1.156-.72-1.906-.718-.765-1.718-.765t-1.703.766q-.688.75-.688 1.892zm12.474-4.125q1.61 0 2.75 1.11 1.14 1.108 1.14 2.952 0 1.843-1.14 3-1.125 1.155-2.64 1.155-1.5 0-2.703-1.328v4.11h-1.672v-10.89h1.672v1.405q1-1.515 2.593-1.515zm-2.625 4.125q0 1.14.688 1.875.704.718 1.688.718.985 0 1.72-.718.734-.72.734-1.86 0-1.156-.72-1.906-.718-.765-1.718-.765t-1.703.766q-.687.75-.687 1.892zm10.068 1.875q.72.718 1.814.718t1.797-.718q.72-.735.72-1.89 0-1.157-.72-1.876-.702-.733-1.796-.733t-1.813.734q-.702.72-.702 1.876t.703 1.89zm4.814 1.03q-1.203 1.188-3 1.188t-3-1.187q-1.203-1.203-1.203-2.922 0-1.734 1.204-2.922 1.203-1.187 3-1.187t3 1.187q1.203 1.188 1.203 2.922 0 1.72-1.203 2.922zm7.07-5.343q-1.25 0-1.89.813-.624.812-.624 2.172v3.42h-1.672v-7.984h1.672v1.61q.406-.75 1.093-1.22.704-.484 1.485-.5l.015 1.688h-.078zm3.695-.22v4.048q0 .563.296.907.312.342.844.342.546 0 1.03-.53l.704 1.187q-.89.795-1.97.795-1.06 0-1.827-.734-.75-.75-.75-2.015v-4h-1.016v-1.36h1.017v-2.5h1.672v2.5h2.108v1.36h-2.11z"/></g></svg>